<?xml version="1.0" encoding="UTF-8" standalone="no"?>
<!DOCTYPE svg PUBLIC "-//W3C//DTD SVG 1.1//EN" "http://www.w3.org/Graphics/SVG/1.1/DTD/svg11.dtd">
<svg xmlns="http://www.w3.org/2000/svg" version="1.1" viewBox="0.00 0.00 2231.00 559.00">
<g stroke-width="2.00" fill="none" stroke-linecap="butt">
<path stroke="#64848a" vector-effect="non-scaling-stroke" d="
  M 1931.78 125.19
  L 1868.99 125.24
  Q 1868.32 125.24 1868.69 125.80
  L 1966.90 273.11
  A 0.82 0.80 -46.3 0 1 1966.91 273.99
  L 1870.88 426.36
  A 0.43 0.42 -74.1 0 0 1871.24 427.01
  L 1933.57 427.06"
/>
<path stroke="#64848a" vector-effect="non-scaling-stroke" d="
  M 1562.77 412.07
  Q 1581.82 400.64 1591.33 381.70
  C 1599.05 366.31 1601.22 346.44 1597.99 329.74
  C 1592.61 301.90 1570.70 278.37 1542.61 272.64
  Q 1540.99 272.31 1542.57 271.83
  C 1568.43 264.10 1587.17 244.26 1591.33 217.24
  C 1595.79 188.26 1587.23 160.80 1562.66 143.46
  Q 1562.43 143.30 1562.40 143.02
  Q 1562.39 142.87 1562.36 142.75"
/>
<path stroke="#64848a" vector-effect="non-scaling-stroke" d="
  M 1902.20 277.14
  A 148.29 148.29 0.0 0 0 1753.91 128.85
  A 148.29 148.29 0.0 0 0 1605.62 277.14
  A 148.29 148.29 0.0 0 0 1753.91 425.43
  A 148.29 148.29 0.0 0 0 1902.20 277.14"
/>
<path stroke="#8dadb4" vector-effect="non-scaling-stroke" d="
  M 1755.67 257.51
  A 0.30 0.30 0.0 0 0 1755.89 257.51
  L 1847.61 220.31
  A 0.30 0.30 0.0 0 0 1847.61 219.75
  L 1755.90 182.54
  A 0.30 0.30 0.0 0 0 1755.68 182.54
  L 1663.97 219.75
  A 0.30 0.30 0.0 0 0 1663.97 220.31
  L 1755.67 257.51"
/>
<path stroke="#8dadb4" vector-effect="non-scaling-stroke" d="
  M 1746.71 384.64
  A 0.33 0.33 0.0 0 0 1747.21 384.36
  L 1747.22 276.54
  A 0.33 0.33 0.0 0 0 1747.06 276.26
  L 1661.83 223.01
  A 0.33 0.33 0.0 0 0 1661.33 223.29
  L 1661.33 331.10
  A 0.33 0.33 0.0 0 0 1661.49 331.38
  L 1746.71 384.64"
/>
<path stroke="#8dadb4" vector-effect="non-scaling-stroke" d="
  M 1765.35 276.23
  A 0.31 0.31 0.0 0 0 1765.20 276.49
  L 1765.20 384.36
  A 0.31 0.31 0.0 0 0 1765.67 384.62
  L 1850.85 331.38
  A 0.31 0.31 0.0 0 0 1851.00 331.12
  L 1851.00 223.25
  A 0.31 0.31 0.0 0 0 1850.53 222.99
  L 1765.35 276.23"
/>
</g>
<path fill="#acacac" d="
  M 1931.78 125.19
  L 1868.99 125.24
  Q 1868.32 125.24 1868.69 125.80
  L 1966.90 273.11
  A 0.82 0.80 -46.3 0 1 1966.91 273.99
  L 1870.88 426.36
  A 0.43 0.42 -74.1 0 0 1871.24 427.01
  L 1933.57 427.06
  C 1895.37 471.86 1843.82 501.17 1785.62 508.97
  C 1698.61 520.65 1613.60 483.43 1562.77 412.07
  Q 1581.82 400.64 1591.33 381.70
  C 1599.05 366.31 1601.22 346.44 1597.99 329.74
  C 1592.61 301.90 1570.70 278.37 1542.61 272.64
  Q 1540.99 272.31 1542.57 271.83
  C 1568.43 264.10 1587.17 244.26 1591.33 217.24
  C 1595.79 188.26 1587.23 160.80 1562.66 143.46
  Q 1562.43 143.30 1562.40 143.02
  Q 1562.39 142.87 1562.36 142.75
  C 1612.55 72.63 1693.89 35.28 1779.86 44.75
  C 1839.16 51.29 1892.89 79.92 1931.78 125.19
  Z
  M 1902.20 277.14
  A 148.29 148.29 0.0 0 0 1753.91 128.85
  A 148.29 148.29 0.0 0 0 1605.62 277.14
  A 148.29 148.29 0.0 0 0 1753.91 425.43
  A 148.29 148.29 0.0 0 0 1902.20 277.14
  Z"
/>
<path fill="#1b5b68" d="
  M 1931.78 125.19
  L 1953.36 125.19
  Q 1953.87 125.19 1954.15 125.61
  L 2014.20 215.88
  A 0.31 0.31 0.0 0 0 2014.72 215.87
  L 2067.59 125.47
  A 0.52 0.52 0.0 0 1 2068.04 125.21
  L 2150.80 125.21
  A 0.24 0.23 16.2 0 1 2151.00 125.57
  L 2055.60 277.01
  Q 2055.35 277.41 2055.61 277.81
  L 2154.89 426.73
  A 0.17 0.17 0.0 0 1 2154.75 427.00
  L 2070.06 427.00
  Q 2069.46 427.00 2069.12 426.49
  L 2008.37 335.17
  Q 2008.02 334.64 2007.70 335.19
  L 1954.18 426.52
  Q 1953.91 426.99 1953.36 426.99
  L 1933.57 427.06
  L 1871.24 427.01
  A 0.43 0.42 -74.1 0 1 1870.88 426.36
  L 1966.91 273.99
  A 0.82 0.80 -46.3 0 0 1966.90 273.11
  L 1868.69 125.80
  Q 1868.32 125.24 1868.99 125.24
  L 1931.78 125.19
  Z"
/>
<path fill="#1b5b68" d="
  M 208.80 185.45
  L 80.81 185.44
  A 0.31 0.31 0.0 0 1 80.50 185.13
  L 80.50 125.52
  A 0.31 0.31 0.0 0 1 80.81 125.21
  L 293.44 125.21
  A 0.31 0.31 0.0 0 1 293.75 125.52
  L 293.75 181.02
  A 0.31 0.31 0.0 0 1 293.69 181.20
  L 164.28 366.31
  A 0.31 0.31 0.0 0 0 164.53 366.80
  L 293.44 366.80
  A 0.31 0.31 0.0 0 1 293.75 367.11
  L 293.75 426.69
  A 0.31 0.31 0.0 0 1 293.44 427.00
  L 80.81 427.00
  A 0.31 0.31 0.0 0 1 80.50 426.69
  L 80.48 371.19
  A 0.31 0.31 0.0 0 1 80.54 371.01
  L 209.05 185.94
  A 0.31 0.31 0.0 0 0 208.80 185.45
  Z"
/>
<path fill="#1b5b68" d="
  M 341.64 426.65
  L 341.64 125.56
  A 0.35 0.35 0.0 0 1 341.99 125.21
  L 414.85 125.21
  A 0.35 0.35 0.0 0 1 415.20 125.56
  L 415.20 426.65
  A 0.35 0.35 0.0 0 1 414.85 427.00
  L 341.99 427.00
  A 0.35 0.35 0.0 0 1 341.64 426.65
  Z"
/>
<path fill="#1b5b68" d="
  M 542.20 319.28
  L 542.20 426.52
  A 0.48 0.47 90.0 0 1 541.73 427.00
  L 468.81 427.00
  A 0.17 0.17 0.0 0 1 468.64 426.83
  L 468.64 125.63
  Q 468.64 125.22 469.04 125.22
  Q 531.49 125.18 594.00 125.25
  Q 602.97 125.26 616.99 127.57
  C 671.29 136.51 703.23 177.70 698.14 232.75
  C 692.84 289.98 644.84 318.20 592.00 318.51
  Q 567.36 318.66 542.72 318.76
  Q 542.20 318.76 542.20 319.28
  Z
  M 606.31 255.33
  C 622.13 247.26 625.98 228.67 622.86 212.52
  C 618.71 191.05 601.70 184.77 581.99 184.66
  Q 562.45 184.54 542.78 184.66
  Q 542.20 184.66 542.20 185.24
  L 542.20 259.72
  Q 542.20 260.19 542.67 260.19
  Q 558.76 260.27 574.70 260.19
  C 587.74 260.12 596.72 260.23 606.31 255.33
  Z"
/>
<path fill="#1b5b68" d="
  M 810.20 319.28
  L 810.20 426.53
  A 0.47 0.47 0.0 0 1 809.73 427.00
  L 736.81 427.00
  A 0.17 0.17 0.0 0 1 736.64 426.83
  L 736.64 125.63
  Q 736.64 125.22 737.04 125.22
  Q 797.74 125.20 858.50 125.23
  C 907.32 125.25 953.03 147.14 964.19 198.51
  C 968.74 219.44 967.25 242.09 958.65 261.97
  C 941.52 301.61 900.98 318.27 860.00 318.51
  Q 835.36 318.66 810.72 318.76
  Q 810.20 318.76 810.20 319.28
  Z
  M 874.31 255.33
  Q 884.33 250.13 888.23 240.95
  C 893.62 228.26 893.27 210.30 885.36 199.02
  C 877.76 188.18 864.51 184.66 851.74 184.61
  Q 831.31 184.54 810.77 184.67
  Q 810.20 184.67 810.20 185.25
  L 810.20 259.72
  Q 810.20 260.19 810.67 260.19
  Q 826.93 260.27 843.04 260.19
  C 855.81 260.12 864.94 260.19 874.31 255.33
  Z"
/>
<path fill="#1b5b68" d="
  M 1123.01 251.20
  L 1180.63 125.72
  A 0.88 0.87 11.9 0 1 1181.43 125.21
  L 1263.01 125.21
  A 0.29 0.28 -76.4 0 1 1263.26 125.63
  Q 1211.67 225.41 1160.04 325.26
  Q 1159.02 327.23 1159.02 329.46
  Q 1158.98 378.14 1159.00 426.73
  A 0.27 0.27 0.0 0 1 1158.73 427.00
  L 1085.80 427.00
  A 0.33 0.33 0.0 0 1 1085.47 426.67
  L 1085.48 328.00
  Q 1085.48 327.36 1085.18 326.78
  L 981.24 125.73
  A 0.36 0.35 76.1 0 1 981.55 125.21
  L 1063.99 125.21
  Q 1064.43 125.21 1064.62 125.61
  L 1122.71 251.20
  A 0.16 0.16 0.0 0 0 1123.01 251.20
  Z"
/>
<path fill="#1b5b68" d="
  M 1562.36 142.75
  Q 1562.39 142.87 1562.40 143.02
  Q 1562.43 143.30 1562.66 143.46
  C 1587.23 160.80 1595.79 188.26 1591.33 217.24
  C 1587.17 244.26 1568.43 264.10 1542.57 271.83
  Q 1540.99 272.31 1542.61 272.64
  C 1570.70 278.37 1592.61 301.90 1597.99 329.74
  C 1601.22 346.44 1599.05 366.31 1591.33 381.70
  Q 1581.82 400.64 1562.77 412.07
  Q 1552.57 418.19 1542.26 421.25
  C 1527.03 425.78 1512.65 426.96 1495.51 426.97
  Q 1427.14 427.03 1358.83 426.99
  A 0.19 0.19 0.0 0 1 1358.64 426.80
  L 1358.64 125.63
  A 0.38 0.37 -90.0 0 1 1359.01 125.25
  Q 1427.35 125.19 1495.75 125.08
  C 1519.35 125.04 1542.98 130.00 1562.03 142.88
  Q 1562.29 143.05 1562.36 142.75
  Z
  M 1516.88 207.68
  C 1513.89 192.60 1499.74 184.57 1485.24 184.28
  Q 1471.62 184.00 1432.70 184.27
  Q 1432.20 184.27 1432.20 184.77
  L 1432.20 246.73
  Q 1432.20 247.23 1432.70 247.23
  Q 1471.93 247.48 1483.50 247.22
  C 1507.10 246.69 1521.69 231.99 1516.88 207.68
  Z
  M 1525.06 335.45
  C 1525.48 312.38 1507.45 301.10 1486.24 301.04
  Q 1459.52 300.97 1432.67 301.06
  Q 1432.20 301.07 1432.20 301.53
  L 1432.20 367.01
  Q 1432.20 367.59 1432.78 367.59
  Q 1460.07 367.71 1487.36 367.65
  C 1508.31 367.61 1524.65 357.95 1525.06 335.45
  Z"
/>
<path fill="#1b5b68" d="
  M 1902.20 277.14
  A 148.29 148.29 0.0 0 1 1753.91 425.43
  A 148.29 148.29 0.0 0 1 1605.62 277.14
  A 148.29 148.29 0.0 0 1 1753.91 128.85
  A 148.29 148.29 0.0 0 1 1902.20 277.14
  Z
  M 1755.67 257.51
  A 0.30 0.30 0.0 0 0 1755.89 257.51
  L 1847.61 220.31
  A 0.30 0.30 0.0 0 0 1847.61 219.75
  L 1755.90 182.54
  A 0.30 0.30 0.0 0 0 1755.68 182.54
  L 1663.97 219.75
  A 0.30 0.30 0.0 0 0 1663.97 220.31
  L 1755.67 257.51
  Z
  M 1746.71 384.64
  A 0.33 0.33 0.0 0 0 1747.21 384.36
  L 1747.22 276.54
  A 0.33 0.33 0.0 0 0 1747.06 276.26
  L 1661.83 223.01
  A 0.33 0.33 0.0 0 0 1661.33 223.29
  L 1661.33 331.10
  A 0.33 0.33 0.0 0 0 1661.49 331.38
  L 1746.71 384.64
  Z
  M 1765.35 276.23
  A 0.31 0.31 0.0 0 0 1765.20 276.49
  L 1765.20 384.36
  A 0.31 0.31 0.0 0 0 1765.67 384.62
  L 1850.85 331.38
  A 0.31 0.31 0.0 0 0 1851.00 331.12
  L 1851.00 223.25
  A 0.31 0.31 0.0 0 0 1850.53 222.99
  L 1765.35 276.23
  Z"
/>
<path fill="#ffffff" d="
  M 1755.67 257.51
  L 1663.97 220.31
  A 0.30 0.30 0.0 0 1 1663.97 219.75
  L 1755.68 182.54
  A 0.30 0.30 0.0 0 1 1755.90 182.54
  L 1847.61 219.75
  A 0.30 0.30 0.0 0 1 1847.61 220.31
  L 1755.89 257.51
  A 0.30 0.30 0.0 0 1 1755.67 257.51
  Z"
/>
<path fill="#ffffff" d="
  M 1746.71 384.64
  L 1661.49 331.38
  A 0.33 0.33 0.0 0 1 1661.33 331.10
  L 1661.33 223.29
  A 0.33 0.33 0.0 0 1 1661.83 223.01
  L 1747.06 276.26
  A 0.33 0.33 0.0 0 1 1747.22 276.54
  L 1747.21 384.36
  A 0.33 0.33 0.0 0 1 1746.71 384.64
  Z"
/>
<path fill="#ffffff" d="
  M 1765.35 276.23
  L 1850.53 222.99
  A 0.31 0.31 0.0 0 1 1851.00 223.25
  L 1851.00 331.12
  A 0.31 0.31 0.0 0 1 1850.85 331.38
  L 1765.67 384.62
  A 0.31 0.31 0.0 0 1 1765.20 384.36
  L 1765.20 276.49
  A 0.31 0.31 0.0 0 1 1765.35 276.23
  Z"
/>
</svg>
